# xmcd CD database file
#
# Track frame offsets:
#	150
#	19095
#	37549
#	55952
#	77843
#	91319
#	108350
#	129221
#	141977
#	153803
#	173099
#	189761
#	205628
#
# Disc length: 3051 seconds
#
# Revision: 2
# Processed by: cddbd v1.5.2PL0 Copyright (c) Steve Scherf et al.
# Submitted via: CDex 1.70beta2
#
DISCID=920be90d
DTITLE=Eric Bibb - Deeper In The Well
DYEAR=2012
DGENRE=Blues
TTITLE0=Bayou Belle
TTITLE1=Dig a Little in the Well
TTITLE2=No Further
TTITLE3=Sinner Man
TTITLE4=Boll Weevil
TTITLE5=In My Time
TTITLE6=Every Wind In The River
TTITLE7=Sittin' In a Hotel Room
TTITLE8=Could Be You, Could Be Me
TTITLE9=Money In Your Pocket
TTITLE10=Music
TTITLE11=The Times They Are A Changin'
TTITLE12=Movin'Up
EXTD=YEAR: 2012
EXTT0=
EXTT1=
EXTT2=
EXTT3=
EXTT4=
EXTT5=
EXTT6=
EXTT7=
EXTT8=
EXTT9=
EXTT10=
EXTT11=
EXTT12=
PLAYORDER=
